<svg width="127" height="36" viewBox="0 0 127 36" fill="none" xmlns="http://www.w3.org/2000/svg">
<path d="M77.8268 3.94531H80.2424L80.6816 4.01776V26.1142L80.3888 27.5632L80.0228 28.4325L79.5836 29.2295L78.7784 30.1713L77.9732 30.8233L76.9484 31.4029L75.9968 31.7651L74.972 31.9825L74.0936 32.0549H65.1632L64.0652 31.91L62.894 31.5478L61.8692 30.9682L60.8444 30.0988L60.1856 29.3019L59.6 28.1427L59.234 27.2009L59.0144 26.1867L58.9412 25.3173V20.1011L59.0144 17.8552L59.234 16.6961L59.6 15.7542L60.2588 14.6675L61.064 13.7982L61.796 13.2186L62.6744 12.7114L63.992 12.2768L64.7972 12.1319L74.1668 12.0594L74.3132 12.1319V17.4205L73.9472 17.493H65.5292L64.9436 17.6379L64.6508 17.7828L64.358 18.2174L64.2848 18.4348V25.6795L64.5044 26.1867L64.8704 26.4765L65.2364 26.6213H74.3132L74.972 26.3316L75.2648 25.8969L75.338 25.6071L75.4112 4.01776L77.8268 3.94531Z" fill="white"/>
<path d="M40.7877 12.1318H50.9625L52.2801 12.4216L53.2317 12.7839L54.2565 13.4359L54.9885 14.0879L55.5009 14.6675L56.0865 15.6093L56.5257 16.696L56.7453 17.7827V19.6664L56.5257 20.7531L56.0865 21.9122L55.4277 23.0714L54.7689 23.7959L54.1833 24.303L53.0853 24.955L52.0605 25.3173L51.5481 25.4622L50.5233 25.5346H41.8857L41.5929 25.4622L41.5197 25.3173V20.5357L41.5929 20.4633L50.5233 20.3908L51.1089 20.101L51.5481 19.5939L51.6945 19.1592V18.3623L51.4017 17.7827L50.7429 17.348L50.5233 17.2756H41.6661L41.0073 17.4929L40.6413 17.7827L40.4217 18.3623L40.3485 18.7245V25.2448L40.4949 26.0417L41.0073 26.6213L41.3733 26.8387L50.4501 26.9111L50.5233 27.056V31.91L50.3769 32.0549H41.5929L40.4949 31.91L39.6897 31.6926L38.8113 31.3304L37.9329 30.8233L36.9813 29.9539L36.3957 29.2294L35.8101 28.2152L35.4441 27.2009L35.2977 26.3315L35.2245 24.955V20.9704L35.2977 18.0001L35.5173 16.8409L35.9565 15.6818L36.6153 14.595L37.4205 13.6532L38.4453 12.9288L39.5433 12.4216L40.2753 12.2043L40.7877 12.1318Z" fill="white"/>
<path d="M4.48062 12.0596L15.4606 12.132L16.4854 12.2769L17.7298 12.6391L19.1206 13.2912L20.4382 14.233L21.6094 15.3922L22.2682 16.4064L22.7806 17.5656L23.0734 18.5074L23.293 19.739L23.3662 30.1714V31.9102L23.293 31.9826H18.0226V21.3328L17.9494 20.1012L17.6566 19.3043L17.1442 18.5074L16.339 17.9278L15.607 17.638L15.3142 17.5656L14.2162 17.4931H6.89621V31.9826H1.55263L1.47943 28.9398V19.3043L1.55263 14.3054L1.91863 13.4361L2.35783 12.8565L2.87023 12.4218L3.60222 12.132L4.48062 12.0596Z" fill="white"/>
<path d="M90.1244 12.1318H101.69V17.4205L101.617 17.4929H91.076L90.344 17.5654L89.9048 17.8552L89.612 18.3623L89.5388 18.9419L89.4656 31.9824L89.1728 32.0549H84.3416L84.1952 31.91V24.955L84.2684 17.9276L84.5612 16.6236L85.0004 15.5369L85.5128 14.7399L86.1716 14.0155L86.684 13.5083L87.6356 12.9288L88.2212 12.639L89.5388 12.2043L90.1244 12.1318Z" fill="white"/>
<path d="M26.8066 12.1318H31.9305L32.0037 12.2767V31.9824H26.7334L26.6602 31.91V24.7377L26.7334 12.2043L26.8066 12.1318Z" fill="white"/>
<path fill-rule="evenodd" clip-rule="evenodd" d="M119.477 12.1318H109.376L108.278 12.3492L107.107 12.7839L106.082 13.4359L105.277 14.1604L104.691 14.8848L104.252 15.6093L103.886 16.4787L103.52 18.0725V25.6795L103.593 26.404L103.959 27.8529L104.545 29.0121L105.277 29.9539L105.862 30.461L106.741 31.1131L107.765 31.6202L108.863 31.91L109.888 32.0549H118.453L119.551 31.9824L119.917 31.91L121.015 31.6202L122.186 31.0406L123.211 30.3161L123.943 29.5192L124.601 28.5049L124.967 27.4907L125.26 26.1142V18.0725L125.187 17.7103L124.821 16.3338L124.455 15.4644L123.796 14.4502L123.137 13.7981L122.405 13.2185L121.6 12.7114L120.649 12.3492L119.477 12.1318ZM118.453 17.4206H110.181L109.522 17.5655L109.01 18.0002L108.79 18.6522V25.4623L108.863 25.897L109.156 26.3317L109.815 26.6939H118.892L119.331 26.549L119.77 26.1868L119.99 25.6796L120.063 22.9266V21.4052L119.99 18.29L119.917 18.0727L119.624 17.7829L119.185 17.4931L118.453 17.4206Z" fill="white"/>
<path d="M26.7334 4.01758H31.9305L32.0037 4.09003V8.79911L31.9305 8.87155H26.7334L26.6602 8.21953L26.7334 4.01758Z" fill="white"/>
</svg>
