<svg width="87" height="284" viewBox="0 0 87 284" fill="none" xmlns="http://www.w3.org/2000/svg">
<g clip-path="url(#clip0_53_4)">
<path d="M83.0166 6.22834L81.2206 2.86174C82.2392 2.11157 83.2506 1.40315 84.2534 0.737379L85.8659 4.24083C84.9267 4.86205 83.9765 5.52471 83.0166 6.22834ZM69.0486 18.7374L66.7638 15.843C68.8499 13.6415 70.9288 11.5885 72.9908 9.68987L75.068 12.8028C73.0804 14.6286 71.0707 16.6083 69.0486 18.7374ZM56.713 33.451L54.135 30.9332C55.9505 28.502 57.7752 26.1766 59.6026 23.9606L62.048 26.6579C60.2673 28.8141 58.4867 31.0796 56.713 33.451ZM45.7999 49.5875L43.0137 47.3995C44.6046 44.8023 46.2143 42.2868 47.8378 39.8558L50.5269 42.2044C48.937 44.5823 47.3597 47.0442 45.7999 49.5875ZM36.1783 66.8092L33.231 64.9287C34.6207 62.1933 36.0359 59.5242 37.4727 56.9239L40.3437 58.9562C38.9333 61.5065 37.5435 64.1249 36.1783 66.8092ZM27.7973 84.9193L24.7196 83.3372C25.9162 80.4833 27.1437 77.685 28.3984 74.9444L31.4139 76.675C30.1806 79.3667 28.9739 82.1154 27.7973 84.9193ZM20.7118 103.599L17.5285 102.311C18.5236 99.3869 19.553 96.5101 20.6139 93.6815L23.7468 95.1167C22.7034 97.897 21.6907 100.725 20.7118 103.599ZM14.863 122.879L11.5942 121.886C12.3965 118.881 13.2368 115.917 14.1123 112.993L17.3407 114.135C16.4792 117.009 15.6524 119.924 14.863 122.879ZM10.3137 142.481L6.97845 141.783C7.58054 138.736 8.22302 135.725 8.90347 132.749L12.2077 133.594C11.5382 136.522 10.9062 139.485 10.3137 142.481ZM7.04958 162.387L3.66626 161.986C4.06637 158.924 4.50844 155.891 4.99037 152.888L8.35202 153.438C7.87801 156.391 7.44317 159.375 7.04958 162.387ZM5.08504 182.487L1.67175 182.383C1.87393 179.28 2.1203 176.203 2.40893 173.153L5.80954 173.405C5.52586 176.407 5.28372 179.434 5.08504 182.487ZM4.42542 202.575L1.00012 202.765C1.00282 199.669 1.05059 196.596 1.14171 193.545L4.56333 193.502C4.47416 196.504 4.42762 199.529 4.42542 202.575ZM5.04852 222.594L1.62851 223.072C1.43643 220.01 1.28951 216.967 1.18621 213.942L4.61117 213.607C4.71353 216.584 4.8588 219.58 5.04852 222.594ZM6.92692 242.458L3.52852 243.216C3.14914 240.204 2.81451 237.207 2.52326 234.227L5.93462 233.606C6.22222 236.541 6.55253 239.492 6.92692 242.458ZM10.0189 262.068L6.65706 263.095C6.09645 260.127 5.58031 257.173 5.10743 254.232L8.48955 253.336C8.95632 256.234 9.4657 259.144 10.0189 262.068ZM14.2688 281.334L10.9564 282.617C10.2228 279.702 9.53317 276.799 8.88636 273.905L12.2254 272.748C12.8639 275.599 13.5447 278.461 14.2688 281.334Z" fill="#FFEAED" stroke="#FFEAED"/>
</g>
<defs>
<clipPath id="clip0_53_4">
<rect width="86" height="284" fill="white" transform="translate(0.5)"/>
</clipPath>
</defs>
</svg>
